# xmcd CD database file
#
# Track frame offsets:
#	150
#	11656
#	24048
#	38468
#	50572
#	63678
#	78116
#	92278
#	105317
#	118597
#	133895
#	148544
#	160576
#	173992
#	188768
#
# Disc length: 2690 seconds
#
# Revision: 0
# Processed by: cddbd v1.5.2PL0 Copyright (c) Steve Scherf et al.
# Submitted via: CDex 1.70beta2
#
DISCID=b00a800f
DTITLE=Nat King Cole - Audiophile Selection
DYEAR=2007
DGENRE=Jazz
TTITLE0=A Blossom Fell
TTITLE1=Pretend
TTITLE2=Unforgettable
TTITLE3=Autumn Leaves
TTITLE4=Smile
TTITLE5=Too Young
TTITLE6='Tis Autumn
TTITLE7=Somewhere Along The Way
TTITLE8=Tenderly
TTITLE9=Embraceable You
TTITLE10=I'm Going To Laugh You Right Out Of My Life
TTITLE11=Walkin' My Baby Back Home
TTITLE12=That's All
TTITLE13=Mona Lisa
TTITLE14=I Love You For Sentimental Reasons
EXTD=YEAR: 2007
EXTT0=
EXTT1=
EXTT2=
EXTT3=
EXTT4=
EXTT5=
EXTT6=
EXTT7=
EXTT8=
EXTT9=
EXTT10=
EXTT11=
EXTT12=
EXTT13=
EXTT14=
PLAYORDER=
